<?xml version="1.0" encoding="utf-8"?>
<!-- Generator: Adobe Illustrator 19.0.1, SVG Export Plug-In . SVG Version: 6.00 Build 0)  -->
<svg version="1.1" id="Layer_1" xmlns="http://www.w3.org/2000/svg" xmlns:xlink="http://www.w3.org/1999/xlink" x="0px" y="0px"
	 viewBox="0 0 30 30" style="enable-background:new 0 0 30 30;" xml:space="preserve">
<style type="text/css">
	.st0{fill:#FFFFFF;}
</style>
<g>
	<path class="st0" d="M15,0C6.7,0,0,6.7,0,15s6.7,15,15,15s15-6.7,15-15S23.3,0,15,0z M15,28.7C8,28.7,1.3,22,1.3,15S8,1.3,15,1.3
		S28.7,8,28.7,15S22,28.7,15,28.7z"/>
	<path class="st0" d="M17.4,9.3c0-0.1-0.1-0.2-0.2-0.3c-0.1-0.1-0.3-0.1-0.4,0l-2.1,0.7c-0.3,0.1-0.4,0.4-0.3,0.6l0.1,0.3l-5.3,3.9
		l-2.1,0.7c-0.1,0-0.2,0.1-0.3,0.2c-0.1,0.1-0.1,0.3,0,0.4l1.3,3.9C8.2,19.8,8.4,20,8.6,20c0.1,0,0.1,0,0.2,0l2.1-0.7l1.1,0
		c0.2,1,1.1,1.8,2.2,1.8c1.1,0,2-0.7,2.2-1.7l1.1,0l0.1,0.3c0,0.1,0.1,0.2,0.2,0.3c0.1,0,0.1,0.1,0.2,0.1c0.1,0,0.1,0,0.2,0l2.1-0.7
		c0.3-0.1,0.4-0.4,0.3-0.6L17.4,9.3z M14.1,20.1c-0.5,0-1-0.3-1.2-0.8l2.3,0C15.1,19.7,14.6,20.1,14.1,20.1z M19.1,11.7
		c0.1,0,0.1,0.1,0.2,0.1c0.2,0,0.4-0.1,0.4-0.3l0.9-1.7c0.1-0.2,0-0.5-0.2-0.7c-0.2-0.1-0.5,0-0.7,0.2L18.9,11
		C18.8,11.3,18.9,11.6,19.1,11.7z M22.8,16.4l-1.7-0.9c-0.2-0.1-0.5,0-0.7,0.2c-0.1,0.2,0,0.5,0.2,0.7l1.7,0.9
		c0.1,0,0.1,0.1,0.2,0.1c0.2,0,0.4-0.1,0.4-0.3C23.2,16.8,23.1,16.5,22.8,16.4z M20.3,13.5c0.1,0.2,0.3,0.3,0.5,0.3
		c0.1,0,0.1,0,0.2,0l1.9-0.6c0.3-0.1,0.4-0.4,0.3-0.6c-0.1-0.3-0.4-0.4-0.6-0.3l-1.9,0.6C20.4,13,20.2,13.3,20.3,13.5z"/>
</g>
</svg>
