<?xml version="1.0" encoding="utf-8"?>
<!-- Generator: Adobe Illustrator 19.0.1, SVG Export Plug-In . SVG Version: 6.00 Build 0)  -->
<svg version="1.1" id="Layer_1" xmlns="http://www.w3.org/2000/svg" xmlns:xlink="http://www.w3.org/1999/xlink" x="0px" y="0px"
	 viewBox="-34 136 30 30" style="enable-background:new -34 136 30 30;" xml:space="preserve">
<style type="text/css">
	.st0{fill:#FFFFFF;}
	.st1{fill:#F5B233;}
</style>
<g>
	<path class="st0" d="M-19,136c-8.3,0-15,6.7-15,15s6.7,15,15,15s15-6.7,15-15S-10.7,136-19,136z M-19,164.7
		c-7,0-13.7-6.7-13.7-13.7s6.7-13.7,13.7-13.7S-5.3,144-5.3,151S-12,164.7-19,164.7z"/>
	<g>
		<g>
			<path class="st1" d="M-19.5,158.7l-1.6-2.7h0.2v-1c0-0.4-0.3-0.7-0.6-0.7h0v0l0,0h-1l0,0h-1c-0.4,0-0.6,0.3-0.6,0.7v1h0.2
				l-1.5,2.7c-0.2,0-0.3,0.1-0.3,0.3v0.5c0,0.2,0.1,0.3,0.3,0.3h6.2c0.2,0,0.3-0.1,0.3-0.3V159C-19.2,158.8-19.3,158.7-19.5,158.7z
				 M-23.1,156.5l-1,2c-0.1,0.1-0.2,0.2-0.3,0.2c-0.1,0-0.1,0-0.2,0c-0.2-0.1-0.3-0.3-0.2-0.5l1-2c0.1-0.2,0.3-0.2,0.5-0.2
				C-23.1,156.1-23,156.3-23.1,156.5z M-23.3,155.6c-0.2,0-0.4-0.2-0.4-0.4c0-0.2,0.2-0.4,0.4-0.4c0.2,0,0.4,0.2,0.4,0.4
				C-23,155.4-23.1,155.6-23.3,155.6z"/>
		</g>
	</g>
	<g>
		<g>
			<g>
				<path class="st1" d="M-22.3,157.8c-0.8-2,0-4.6,0-4.6s-0.1-0.1-0.3-0.2c-1.1,3.2,0.3,5.4,0.3,5.4S-22.2,158-22.3,157.8z"/>
				<path class="st1" d="M-22.5,153.7c0,0,2-1,2.4-2.1c0.4-1.1,2.1-2.7,2.1-2.7s-0.3-0.2-0.9,0c0.5-0.5,1.6-0.5,1.6-0.5
					s0.2-0.3,1.2-1.1c1-0.9,3.6-1.7,3.6-1.7s1.7-0.7,1.7-1.3c-0.3-0.3,0-0.5,0-0.5s-0.1-0.5-0.5-0.7c-1.3-0.8-2.2-0.2-2.2-0.2
					s0.3-0.4,0.9-0.6c-3.3-0.4-6.2,1.3-7.5,2.9c-1.2,1.6-1.6,3.5-1.6,3.5s0-0.2,0-1.1c-1.7,3.4-0.9,5.7-0.9,5.7L-22.5,153.7z"/>
			</g>
			<path class="st0" d="M-21.9,152c2.5-7.5,9.5-7.9,9.5-7.9S-19.5,143.3-21.9,152z"/>
		</g>
	</g>
</g>
</svg>
