<?xml version="1.0" encoding="utf-8"?>
<!-- Generator: Adobe Illustrator 19.0.1, SVG Export Plug-In . SVG Version: 6.00 Build 0)  -->
<svg version="1.1" id="Layer_1" xmlns="http://www.w3.org/2000/svg" xmlns:xlink="http://www.w3.org/1999/xlink" x="0px" y="0px"
	 viewBox="-34 136 30 30" style="enable-background:new -34 136 30 30;" xml:space="preserve">
<style type="text/css">
	.st0{fill:#FFFFFF;}
	.st1{fill:#F5B233;}
</style>
<g>
	<path class="st0" d="M-19,136c-8.3,0-15,6.7-15,15s6.7,15,15,15s15-6.7,15-15S-10.7,136-19,136z M-19,164.7
		c-7,0-13.7-6.7-13.7-13.7s6.7-13.7,13.7-13.7S-5.3,144-5.3,151S-12,164.7-19,164.7z"/>
	<g>
		<g>
			<g>
				<path class="st1" d="M-24,160.5c-1-2.4,0-5.5,0-5.5s-0.1-0.1-0.3-0.2c-1.3,3.8,0.3,6.5,0.3,6.5S-24,160.7-24,160.5z"/>
				<path class="st1" d="M-24.3,155.6c0,0,2.4-1.2,2.9-2.6c0.5-1.4,2.5-3.2,2.5-3.2s-0.3-0.2-1.1,0c0.6-0.6,1.9-0.6,1.9-0.6
					s0.2-0.3,1.4-1.4c1.2-1,4.3-2,4.3-2s2-0.8,2-1.6c-0.3-0.4,0-0.6,0-0.6s-0.1-0.6-0.6-0.9c-1.5-1-2.6-0.3-2.6-0.3s0.3-0.4,1.1-0.7
					c-3.9-0.5-7.5,1.5-9,3.4c-1.5,1.9-1.9,4.2-1.9,4.2s0-0.3,0-1.3c-2,4.1-1.1,6.8-1.1,6.8L-24.3,155.6z"/>
			</g>
			<path class="st0" d="M-23.5,153.4c3-9,11.4-9.5,11.4-9.5S-20.7,143.1-23.5,153.4z"/>
		</g>
	</g>
</g>
<path class="st1" d="M27.3,146.1c-0.1-0.3-0.4-0.4-0.6-0.3l-1.9,0.6c-0.3,0.1-0.5,0.4-0.4,0.6c0.1,0.2,0.3,0.3,0.5,0.3
	c0.1,0,0.1,0,0.2,0l1.9-0.6C27.3,146.6,27.4,146.3,27.3,146.1z M26.9,149.9l-1.7-0.9c-0.2-0.1-0.5,0-0.7,0.2c-0.1,0.2,0,0.5,0.2,0.7
	l1.7,0.9c0.1,0,0.1,0.1,0.2,0.1c0.2,0,0.4-0.1,0.4-0.3C27.3,150.3,27.2,150,26.9,149.9z M24.5,142.6c-0.2-0.1-0.5,0-0.7,0.2
	l-0.8,1.7c-0.1,0.3,0,0.6,0.2,0.7c0.1,0,0.1,0.1,0.2,0.1c0.2,0,0.4-0.1,0.4-0.3l0.9-1.7C24.8,143.1,24.7,142.8,24.5,142.6z
	 M24.7,152.3l-3.2-9.5c0-0.1-0.1-0.2-0.2-0.3c-0.1-0.1-0.3-0.1-0.4,0l-2.1,0.7c-0.3,0.1-0.4,0.4-0.3,0.6l0.1,0.3l-5.3,3.9l-2.1,0.7
	c-0.1,0-0.2,0.1-0.3,0.2c-0.1,0.1-0.1,0.3,0,0.4l1.3,3.9c0.1,0.1,0.3,0.3,0.5,0.3c0.1,0,0.1,0,0.2,0l2.1-0.7l6.6,0.1l0.1,0.3
	c0,0.1,0.1,0.2,0.2,0.3c0.1,0,0.1,0.1,0.2,0.1s0.1,0,0.2,0l2.1-0.7C24.7,152.8,24.8,152.5,24.7,152.3z"/>
</svg>
