<?xml version="1.0" encoding="utf-8"?>
<!-- Generator: Adobe Illustrator 19.0.1, SVG Export Plug-In . SVG Version: 6.00 Build 0)  -->
<svg version="1.1" id="Layer_1" xmlns="http://www.w3.org/2000/svg" xmlns:xlink="http://www.w3.org/1999/xlink" x="0px" y="0px"
	 viewBox="-34 136 30 30" style="enable-background:new -34 136 30 30;" xml:space="preserve">
<style type="text/css">
	.st0{fill:#FFFFFF;}
	.st1{fill:#F5B233;}
</style>
<g>
	<path class="st0" d="M-19,136c-8.3,0-15,6.7-15,15s6.7,15,15,15s15-6.7,15-15S-10.7,136-19,136z M-19,164.7
		c-7,0-13.7-6.7-13.7-13.7s6.7-13.7,13.7-13.7S-5.3,144-5.3,151S-12,164.7-19,164.7z"/>
	<path class="st1" d="M-10.8,148.6c-0.1-0.3-0.4-0.4-0.6-0.3l-1.9,0.6c-0.3,0.1-0.5,0.4-0.4,0.6c0.1,0.2,0.3,0.3,0.5,0.3
		c0.1,0,0.1,0,0.2,0l1.9-0.6C-10.8,149.1-10.7,148.8-10.8,148.6z M-11.2,152.4l-1.7-0.9c-0.2-0.1-0.5,0-0.7,0.2
		c-0.1,0.2,0,0.5,0.2,0.7l1.7,0.9c0.1,0,0.1,0.1,0.2,0.1c0.2,0,0.4-0.1,0.4-0.3C-10.8,152.8-10.9,152.5-11.2,152.4z M-13.6,145.1
		c-0.2-0.1-0.5,0-0.7,0.2l-0.8,1.7c-0.1,0.3,0,0.6,0.2,0.7c0.1,0,0.1,0.1,0.2,0.1c0.2,0,0.4-0.1,0.4-0.3l0.9-1.7
		C-13.3,145.6-13.4,145.3-13.6,145.1z M-13.4,154.8l-3.2-9.5c0-0.1-0.1-0.2-0.2-0.3c-0.1-0.1-0.3-0.1-0.4,0l-2.1,0.7
		c-0.3,0.1-0.4,0.4-0.3,0.6l0.1,0.3l-5.3,3.9l-2.1,0.7c-0.1,0-0.2,0.1-0.3,0.2c-0.1,0.1-0.1,0.3,0,0.4l1.3,3.9
		c0.1,0.1,0.3,0.3,0.5,0.3c0.1,0,0.1,0,0.2,0l2.1-0.7l6.6,0.1l0.1,0.3c0,0.1,0.1,0.2,0.2,0.3c0.1,0,0.1,0.1,0.2,0.1s0.1,0,0.2,0
		l2.1-0.7C-13.4,155.3-13.3,155-13.4,154.8z"/>
</g>
</svg>
