<?xml version="1.0" encoding="utf-8"?>
<!-- Generator: Adobe Illustrator 19.0.1, SVG Export Plug-In . SVG Version: 6.00 Build 0)  -->
<svg version="1.1" id="Layer_1" xmlns="http://www.w3.org/2000/svg" xmlns:xlink="http://www.w3.org/1999/xlink" x="0px" y="0px"
	 viewBox="0 0 30 30" style="enable-background:new 0 0 30 30;" xml:space="preserve">
<style type="text/css">
	.st0{fill:#C2332A;}
</style>
<g>
	<path class="st0" d="M15,1.3C7.4,1.3,1.3,7.4,1.3,15S7.4,28.7,15,28.7S28.7,22.6,28.7,15S22.6,1.3,15,1.3z M15,23.7
		c-1.1,0-1.8-0.8-1.8-1.9c0-1.1,0.8-1.9,1.8-1.9c1.1,0,1.8,0.8,1.8,1.9C16.8,22.9,16.1,23.7,15,23.7z M15.7,16.5
		c-0.3,0.9-1.1,0.9-1.4,0c-0.3-1.1-1.5-5.2-1.5-7.9c0-3.6,4.4-3.6,4.4,0C17.2,11.3,16,15.5,15.7,16.5z"/>
</g>
</svg>
