<?xml version="1.0" encoding="utf-8"?>
<!-- Generator: Adobe Illustrator 19.0.1, SVG Export Plug-In . SVG Version: 6.00 Build 0)  -->
<svg version="1.1" id="Layer_1" xmlns="http://www.w3.org/2000/svg" xmlns:xlink="http://www.w3.org/1999/xlink" x="0px" y="0px"
	 viewBox="-34 136 30 30" style="enable-background:new -34 136 30 30;" xml:space="preserve">
<style type="text/css">
	.st0{fill:#F5B233;}
	.st1{fill:#FFFFFF;}
</style>
<g>
	<path class="st0" d="M-19,159.7c-1.1,0-1.8-0.8-1.8-1.9c0-1.1,0.8-1.9,1.8-1.9c1.1,0,1.8,0.8,1.8,1.9
		C-17.2,158.9-17.9,159.7-19,159.7z M-18.3,152.5c-0.3,0.9-1.1,0.9-1.4,0c-0.3-1.1-1.5-5.2-1.5-7.9c0-3.6,4.4-3.6,4.4,0
		C-16.8,147.3-18,151.5-18.3,152.5z"/>
</g>
<path class="st1" d="M-19,136c-8.3,0-15,6.7-15,15s6.7,15,15,15s15-6.7,15-15S-10.7,136-19,136z M-19,164.7c-7,0-13.7-6.7-13.7-13.7
	s6.7-13.7,13.7-13.7S-5.3,144-5.3,151S-12,164.7-19,164.7z"/>
</svg>
