<?xml version="1.0" encoding="utf-8"?>
<!-- Generator: Adobe Illustrator 19.0.1, SVG Export Plug-In . SVG Version: 6.00 Build 0)  -->
<svg version="1.1" id="Layer_1" xmlns="http://www.w3.org/2000/svg" xmlns:xlink="http://www.w3.org/1999/xlink" x="0px" y="0px"
	 viewBox="0 0 30 30" style="enable-background:new 0 0 30 30;" xml:space="preserve">
<style type="text/css">
	.st0{fill:#FFFFFF;}
</style>
<g>
	<path class="st0" d="M15,0C6.7,0,0,6.7,0,15s6.7,15,15,15s15-6.7,15-15S23.3,0,15,0z M15,28.7C8,28.7,1.3,22,1.3,15S8,1.3,15,1.3
		S28.7,8,28.7,15S22,28.7,15,28.7z"/>
	<path class="st0" d="M19.7,14.1h-0.9l0-2.7c0-1.6-1.7-2.9-3.7-2.9c-2.1,0-3.7,1.3-3.7,2.9l0,2.7h-0.9c-0.5,0-0.9,0.4-0.9,0.8l0,5.9
		c0,0.4,0.4,0.8,1,0.8h9.4c0.5,0,0.9-0.4,0.9-0.8l0-5.9C20.6,14.5,20.2,14.1,19.7,14.1z M13.1,11.2c0-0.8,0.9-1.4,1.9-1.4
		c1,0,1.9,0.6,1.9,1.4l0,2.8h-3.7V11.2z"/>
</g>
</svg>
