<?xml version="1.0" encoding="utf-8"?>
<!-- Generator: Adobe Illustrator 19.0.1, SVG Export Plug-In . SVG Version: 6.00 Build 0)  -->
<svg version="1.1" id="Layer_1" xmlns="http://www.w3.org/2000/svg" xmlns:xlink="http://www.w3.org/1999/xlink" x="0px" y="0px"
	 viewBox="-34 136 30 30" style="enable-background:new -34 136 30 30;" xml:space="preserve">
<style type="text/css">
	.st0{fill:#FFFFFF;}
	.st1{fill:#F5B233;}
</style>
<g>
	<path class="st0" d="M-19,136c-8.3,0-15,6.7-15,15s6.7,15,15,15s15-6.7,15-15S-10.7,136-19,136z M-19,164.7
		c-7,0-13.7-6.7-13.7-13.7s6.7-13.7,13.7-13.7S-5.3,144-5.3,151S-12,164.7-19,164.7z"/>
	<path class="st1" d="M-14.3,150.1h-0.9v-2.7c0-1.6-1.7-2.9-3.7-2.9c-2.1,0-3.7,1.3-3.7,2.9v2.7h-0.9c-0.5,0-0.9,0.4-0.9,0.8v5.9
		c0,0.4,0.4,0.8,1,0.8h9.4c0.5,0,0.9-0.4,0.9-0.8v-5.9C-13.4,150.5-13.8,150.1-14.3,150.1z M-20.9,147.2c0-0.8,0.9-1.4,1.9-1.4
		s1.9,0.6,1.9,1.4v2.8h-3.7v-2.8H-20.9z"/>
</g>
</svg>
