<?xml version="1.0" encoding="utf-8"?>
<!-- Generator: Adobe Illustrator 19.0.1, SVG Export Plug-In . SVG Version: 6.00 Build 0)  -->
<svg version="1.1" id="Layer_1" xmlns="http://www.w3.org/2000/svg" xmlns:xlink="http://www.w3.org/1999/xlink" x="0px" y="0px"
	 viewBox="0 0 30 30" style="enable-background:new 0 0 30 30;" xml:space="preserve">
<style type="text/css">
	.st0{fill:#FFFFFF;}
</style>
<g>
	<path class="st0" d="M15,0C6.7,0,0,6.7,0,15s6.7,15,15,15s15-6.7,15-15S23.3,0,15,0z M15,28.7C8,28.7,1.3,22,1.3,15S8,1.3,15,1.3
		S28.7,8,28.7,15S22,28.7,15,28.7z"/>
	<g>
		<g>
			<path class="st0" d="M20.8,10.9c-0.7-0.9-1.6-1.5-2.8-2c-1.2-0.5-2.5-0.7-3.9-0.7s-2.7,0.2-3.9,0.7c-0.5,0.2-1,0.5-1.5,0.8
				c-0.5,0.4-1,0.8-1.4,1.3c-0.7,0.9-1,1.8-1,2.8c0,0.9,0.3,1.7,0.8,2.5c0.5,0.8,1.2,1.4,2.2,1.9C9.1,18.3,9,18.6,9,18.8
				c-0.1,0.2-0.2,0.4-0.2,0.5c-0.1,0.1-0.2,0.3-0.3,0.4c-0.1,0.2-0.2,0.3-0.3,0.3c-0.1,0.1-0.2,0.2-0.3,0.3
				c-0.1,0.2-0.2,0.3-0.3,0.3c0,0,0,0-0.1,0.1c0,0-0.1,0.1-0.1,0.1l-0.1,0.1c0,0,0,0.1,0,0.1c0,0,0,0,0,0.1c0,0,0,0.1,0,0.1v0
				c0,0.1,0.1,0.2,0.1,0.2c0.1,0.1,0.2,0.1,0.2,0.1h0c0.4,0,0.7-0.1,1-0.2c0.4-0.1,0.8-0.2,1.2-0.4c1-0.4,2-1,2.8-1.7
				c0.2,0,0.3,0,0.5,0c0.3,0,0.5,0,0.8,0c0.2,0,0.3,0,0.5,0h0.1c0,0,0.1,0,0.1,0c-0.3-0.6-0.4-1.2-0.4-1.8c0-1.3,0.6-2.5,1.6-3.4
				c1-0.9,2.3-1.4,3.7-1.4c0.8,0,1.6,0.2,2.3,0.5C21.7,12.4,21.4,11.6,20.8,10.9z"/>
		</g>
		<path class="st0" d="M22.8,20.1c0,0.7,0.4,1.2,0.9,1.5v0.2c-0.2,0-0.3,0-0.5,0c-1,0-1.9-0.4-2.5-1.1c-0.4,0.1-0.8,0.2-1.2,0.2
			c-2.3,0-4.1-1.6-4.1-3.7s1.9-3.7,4.1-3.7s4.1,1.6,4.1,3.7c0,0.8-0.3,1.5-0.8,2.1C22.9,19.6,22.8,19.8,22.8,20.1z"/>
	</g>
</g>
</svg>
