<?xml version="1.0" encoding="utf-8"?>
<!-- Generator: Adobe Illustrator 19.0.1, SVG Export Plug-In . SVG Version: 6.00 Build 0)  -->
<svg version="1.1" id="Layer_1" xmlns="http://www.w3.org/2000/svg" xmlns:xlink="http://www.w3.org/1999/xlink" x="0px" y="0px"
	 viewBox="-34 136 30 30" style="enable-background:new -34 136 30 30;" xml:space="preserve">
<style type="text/css">
	.st0{fill:#FFFFFF;}
	.st1{fill:#222244;}
</style>
<g>
	<path class="st0" d="M-19,136c-8.3,0-15,6.7-15,15s6.7,15,15,15s15-6.7,15-15S-10.7,136-19,136z M-19,164.7
		c-7,0-13.7-6.7-13.7-13.7s6.7-13.7,13.7-13.7S-5.3,144-5.3,151S-12,164.7-19,164.7z"/>
	<g>
		<g>
			<path class="st0" d="M-13.2,146.9c-0.7-0.9-1.6-1.5-2.8-2c-1.2-0.5-2.5-0.7-3.9-0.7s-2.7,0.2-3.9,0.7c-0.5,0.2-1,0.5-1.5,0.8
				c-0.5,0.4-1,0.8-1.4,1.3c-0.7,0.9-1,1.8-1,2.8c0,0.9,0.3,1.7,0.8,2.5s1.2,1.4,2.2,1.9c-0.2,0.1-0.3,0.4-0.3,0.6
				c-0.1,0.2-0.2,0.4-0.2,0.5c-0.1,0.1-0.2,0.3-0.3,0.4c-0.1,0.2-0.2,0.3-0.3,0.3c-0.1,0.1-0.2,0.2-0.3,0.3
				c-0.1,0.2-0.2,0.3-0.3,0.3c0,0,0,0-0.1,0.1l-0.1,0.1l-0.1,0.1v0.1c0,0,0,0,0,0.1v0.1l0,0c0,0.1,0.1,0.2,0.1,0.2
				c0.1,0.1,0.2,0.1,0.2,0.1l0,0c0.4,0,0.7-0.1,1-0.2c0.4-0.1,0.8-0.2,1.2-0.4c1-0.4,2-1,2.8-1.7c0.2,0,0.3,0,0.5,0
				c0.3,0,0.5,0,0.8,0c0.2,0,0.3,0,0.5,0h0.1h0.1c-0.3-0.6-0.4-1.2-0.4-1.8c0-1.3,0.6-2.5,1.6-3.4s2.3-1.4,3.7-1.4
				c0.8,0,1.6,0.2,2.3,0.5C-12.3,148.4-12.6,147.6-13.2,146.9z"/>
		</g>
		<path class="st1" d="M-11.2,156.1c0,0.7,0.4,1.2,0.9,1.5v0.2c-0.2,0-0.3,0-0.5,0c-1,0-1.9-0.4-2.5-1.1c-0.4,0.1-0.8,0.2-1.2,0.2
			c-2.3,0-4.1-1.6-4.1-3.7c0-2.1,1.9-3.7,4.1-3.7s4.1,1.6,4.1,3.7c0,0.8-0.3,1.5-0.8,2.1C-11.1,155.6-11.2,155.8-11.2,156.1z"/>
	</g>
</g>
</svg>
