<?xml version="1.0" encoding="utf-8"?>
<!-- Generator: Adobe Illustrator 19.0.1, SVG Export Plug-In . SVG Version: 6.00 Build 0)  -->
<svg version="1.1" id="Layer_1" xmlns="http://www.w3.org/2000/svg" xmlns:xlink="http://www.w3.org/1999/xlink" x="0px" y="0px"
	 viewBox="0 0 30 30" style="enable-background:new 0 0 30 30;" xml:space="preserve">
<style type="text/css">
	.st0{fill:#FFFFFF;}
</style>
<g>
	<path class="st0" d="M15,0C6.7,0,0,6.7,0,15s6.7,15,15,15s15-6.7,15-15S23.3,0,15,0z M15,28.7C8,28.7,1.3,22,1.3,15S8,1.3,15,1.3
		S28.7,8,28.7,15S22,28.7,15,28.7z"/>
	<g>
		<path class="st0" d="M11.9,23.1c-1.1-2.2-0.5-3.5,0.3-4.7c0.9-1.3,1.1-2.6,1.1-2.6s0.7,0.9,0.4,2.4c1.3-1.4,1.5-3.6,1.3-4.5
			c2.8,2,4.1,6.3,2.4,9.5c8.7-4.9,2.2-12.3,1-13.1c0.4,0.8,0.5,2.2-0.3,2.9c-1.3-4.9-4.5-5.9-4.5-5.9c0.4,2.5-1.4,5.3-3.1,7.4
			c-0.1-1-0.1-1.7-0.7-2.7c-0.1,1.8-1.5,3.3-1.9,5.2C7.6,19.3,8.5,21.1,11.9,23.1z"/>
	</g>
</g>
</svg>
