<?xml version="1.0" encoding="utf-8"?>
<!-- Generator: Adobe Illustrator 19.0.1, SVG Export Plug-In . SVG Version: 6.00 Build 0)  -->
<svg version="1.1" id="Layer_1" xmlns="http://www.w3.org/2000/svg" xmlns:xlink="http://www.w3.org/1999/xlink" x="0px" y="0px"
	 viewBox="-34 136 30 30" style="enable-background:new -34 136 30 30;" xml:space="preserve">
<style type="text/css">
	.st0{fill:#FFFFFF;}
	.st1{fill:#F5B233;}
</style>
<g>
	<path class="st0" d="M-19,136c-8.3,0-15,6.7-15,15s6.7,15,15,15s15-6.7,15-15S-10.7,136-19,136z M-19,164.7
		c-7,0-13.7-6.7-13.7-13.7s6.7-13.7,13.7-13.7S-5.3,144-5.3,151S-12,164.7-19,164.7z"/>
	<g>
		<path class="st1" d="M-22.1,159.1c-1.1-2.2-0.5-3.5,0.3-4.7c0.9-1.3,1.1-2.6,1.1-2.6s0.7,0.9,0.4,2.4c1.3-1.4,1.5-3.6,1.3-4.5
			c2.8,2,4.1,6.3,2.4,9.5c8.7-4.9,2.2-12.3,1-13.1c0.4,0.8,0.5,2.2-0.3,2.9c-1.3-4.9-4.5-5.9-4.5-5.9c0.4,2.5-1.4,5.3-3.1,7.4
			c-0.1-1-0.1-1.7-0.7-2.7c-0.1,1.8-1.5,3.3-1.9,5.2C-26.4,155.3-25.5,157.1-22.1,159.1z"/>
	</g>
</g>
</svg>
