<?xml version="1.0" encoding="utf-8"?>
<!-- Generator: Adobe Illustrator 19.0.1, SVG Export Plug-In . SVG Version: 6.00 Build 0)  -->
<svg version="1.1" id="Layer_1" xmlns="http://www.w3.org/2000/svg" xmlns:xlink="http://www.w3.org/1999/xlink" x="0px" y="0px"
	 viewBox="-34 136 30 30" style="enable-background:new -34 136 30 30;" xml:space="preserve">
<style type="text/css">
	.st0{fill:#F5B233;}
	.st1{fill:#FFFFFF;}
</style>
<path class="st0" d="M-11.4,151c-0.8-0.8-2-1.2-3.6-1.2c-0.3,0-0.7,0-1.1,0.1l-3.9-3.7l1-0.9c0.2-0.2,0.2-0.4,0-0.6l-1.3-1.3
	c-0.2-0.2-0.5-0.2-0.6,0l-5.8,5.8c-0.2,0.2-0.2,0.4,0,0.6l1.3,1.2c0.1,0.1,0.2,0.1,0.3,0.1c0.1,0,0.2,0,0.3-0.1l0.9-0.9l3.7,3.9
	c-0.1,1.5-0.1,3.5,1.1,4.7c0.1,0.1,0.2,0.1,0.3,0.1s0.2,0,0.3-0.1l3.2-3.2l2.5,2.5c0.1,0.1,0.2,0.1,0.3,0.1c0.1,0,0.2,0,0.3-0.1
	c0.2-0.2,0.2-0.5,0-0.6l-2.5-2.5l3.2-3.2C-11.2,151.4-11.2,151.2-11.4,151z"/>
<path class="st1" d="M-19,136c-8.3,0-15,6.7-15,15s6.7,15,15,15s15-6.7,15-15S-10.7,136-19,136z M-19,164.7c-7,0-13.7-6.7-13.7-13.7
	s6.7-13.7,13.7-13.7S-5.3,144-5.3,151S-12,164.7-19,164.7z"/>
</svg>
