<?xml version="1.0" encoding="utf-8"?>
<!-- Generator: Adobe Illustrator 19.0.1, SVG Export Plug-In . SVG Version: 6.00 Build 0)  -->
<svg version="1.1" id="Layer_1" xmlns="http://www.w3.org/2000/svg" xmlns:xlink="http://www.w3.org/1999/xlink" x="0px" y="0px"
	 viewBox="0 0 30 30" style="enable-background:new 0 0 30 30;" xml:space="preserve">
<style type="text/css">
	.st0{fill:#FFFFFF;}
</style>
<g>
	<path class="st0" d="M22.6,15c-0.8-0.8-2-1.2-3.6-1.2c-0.3,0-0.7,0-1.1,0.1l-3.9-3.7L15,9.3c0.2-0.2,0.2-0.4,0-0.6l-1.3-1.3
		c-0.2-0.2-0.5-0.2-0.6,0l-5.8,5.8c-0.2,0.2-0.2,0.4,0,0.6L8.6,15c0.1,0.1,0.2,0.1,0.3,0.1c0.1,0,0.2,0,0.3-0.1l0.9-0.9l3.7,3.9
		c-0.1,1.5-0.1,3.5,1.1,4.7c0.1,0.1,0.2,0.1,0.3,0.1c0.1,0,0.2,0,0.3-0.1l3.2-3.2l2.5,2.5c0.1,0.1,0.2,0.1,0.3,0.1
		c0.1,0,0.2,0,0.3-0.1c0.2-0.2,0.2-0.5,0-0.6l-2.5-2.5l3.2-3.2C22.8,15.4,22.8,15.2,22.6,15z M10.2,13 M15,0C6.7,0,0,6.7,0,15
		s6.7,15,15,15s15-6.7,15-15S23.3,0,15,0z M15,28.7C8,28.7,1.3,22,1.3,15S8,1.3,15,1.3S28.7,8,28.7,15S22,28.7,15,28.7z"/>
</g>
</svg>
