<?xml version="1.0" encoding="utf-8"?>
<!-- Generator: Adobe Illustrator 19.0.1, SVG Export Plug-In . SVG Version: 6.00 Build 0)  -->
<svg version="1.1" id="Layer_1" xmlns="http://www.w3.org/2000/svg" xmlns:xlink="http://www.w3.org/1999/xlink" x="0px" y="0px"
	 viewBox="0 0 20 20" style="enable-background:new 0 0 20 20;" xml:space="preserve">
<style type="text/css">
	.st0{display:none;}
	.st1{display:inline;fill:#517CBE;}
	.st2{display:inline;fill:#FFFFFF;}
	.st3{fill:#F1605C;}
	.st4{fill:#FFFFFF;}
	.st5{display:inline;fill:#65CCEF;}
	.st6{display:inline;fill:#1597D3;}
	.st7{display:inline;fill:#865EA7;}
	.st8{display:inline;}
	.st9{fill:#007AC0;}
	.st10{fill:#EF372E;}
</style>
<g class="st0">
	<path class="st1" d="M10,20c5.5,0,10-4.5,10-10c0-5.5-4.5-10-10-10C4.5,0,0,4.5,0,10C0,15.5,4.5,20,10,20"/>
	<path class="st2" d="M7.6,8.3h1v-1c0-0.4,0-1.1,0.3-1.5C9.3,5.3,9.8,5,10.6,5c1.3,0,1.9,0.2,1.9,0.2l-0.3,1.5c0,0-0.4-0.1-0.8-0.1
		c-0.4,0-0.8,0.1-0.8,0.5v1.2h1.6l-0.1,1.5h-1.5V15H8.6V9.8h-1V8.3z"/>
</g>
<g>
	<path class="st3" d="M10,20c5.5,0,10-4.5,10-10c0-5.5-4.5-10-10-10C4.5,0,0,4.5,0,10C0,15.5,4.5,20,10,20"/>
	<path class="st4" d="M10,5c-2.8,0-5,2.2-5,5c0,2,1.2,3.8,3,4.6c0-0.3,0-0.8,0.1-1.1c0.1-0.4,0.6-2.7,0.6-2.7s-0.2-0.3-0.2-0.8
		c0-0.7,0.4-1.3,1-1.3c0.5,0,0.7,0.3,0.7,0.8c0,0.5-0.3,1.1-0.4,1.8c-0.1,0.5,0.3,1,0.8,1c0.9,0,1.6-1.2,1.6-2.7
		c0-1.1-0.7-1.9-2.1-1.9c-1.5,0-2.5,1.1-2.5,2.4c0,0.4,0.1,0.7,0.3,1C8,11,8,11,8,11.2c0,0.1-0.1,0.3-0.1,0.4c0,0.1-0.1,0.2-0.3,0.1
		c-0.7-0.3-1-1.1-1-1.9c0-1.4,1.2-3.1,3.6-3.1c1.9,0,3.2,1.4,3.2,2.9c0,2-1.1,3.4-2.7,3.4c-0.5,0-1-0.3-1.2-0.6c0,0-0.3,1.2-0.4,1.4
		c-0.1,0.4-0.3,0.8-0.5,1.1C9,14.9,9.5,15,10,15c2.8,0,5-2.2,5-5C15,7.2,12.8,5,10,5"/>
</g>
<g class="st0">
	<path class="st5" d="M10,20c5.5,0,10-4.5,10-10c0-5.5-4.5-10-10-10C4.5,0,0,4.5,0,10C0,15.5,4.5,20,10,20"/>
	<path class="st2" d="M15,7.4c-0.4,0.2-0.8,0.3-1.2,0.3c0.4-0.3,0.8-0.7,0.9-1.1c-0.4,0.2-0.8,0.4-1.3,0.5c-0.4-0.4-0.9-0.6-1.5-0.6
		c-1.1,0-2.1,0.9-2.1,2.1c0,0.2,0,0.3,0.1,0.5C8.2,8.9,6.7,8,5.7,6.8c-0.2,0.3-0.3,0.7-0.3,1c0,0.7,0.4,1.3,0.9,1.7
		C6,9.5,5.7,9.4,5.4,9.3v0c0,1,0.7,1.8,1.6,2c-0.2,0-0.4,0.1-0.5,0.1c-0.1,0-0.3,0-0.4,0c0.3,0.8,1,1.4,1.9,1.4
		c-0.7,0.6-1.6,0.9-2.6,0.9c-0.2,0-0.3,0-0.5,0c0.9,0.6,2,0.9,3.2,0.9c3.8,0,5.8-3.1,5.8-5.8c0-0.1,0-0.2,0-0.3
		C14.4,8.2,14.7,7.8,15,7.4"/>
</g>
<g class="st0">
	<path class="st6" d="M10,20c5.5,0,10-4.5,10-10c0-5.5-4.5-10-10-10C4.5,0,0,4.5,0,10C0,15.5,4.5,20,10,20"/>
	<path class="st2" d="M14.7,11.1c0.1-0.3,0.1-0.7,0.1-1c0-2.6-2.1-4.8-4.8-4.8c-0.3,0-0.6,0-0.8,0.1C8.8,5.1,8.3,4.9,7.8,4.9
		C6.2,4.9,5,6.2,5,7.7c0,0.5,0.1,1,0.4,1.4c-0.1,0.3-0.1,0.6-0.1,1c0,2.6,2.1,4.8,4.8,4.8c0.3,0,0.6,0,0.9-0.1
		c0.4,0.2,0.8,0.3,1.3,0.3c1.5,0,2.8-1.2,2.8-2.8C15,11.9,14.9,11.4,14.7,11.1z M12.5,12.3c-0.2,0.3-0.5,0.6-1,0.7
		c-0.4,0.2-0.9,0.3-1.5,0.3c-0.7,0-1.3-0.1-1.7-0.4c-0.3-0.2-0.6-0.4-0.8-0.7c-0.2-0.3-0.3-0.6-0.3-0.9c0-0.2,0.1-0.3,0.2-0.4
		c0.1-0.1,0.3-0.2,0.5-0.2c0.2,0,0.3,0,0.4,0.1c0.1,0.1,0.2,0.2,0.3,0.4c0.1,0.2,0.2,0.4,0.3,0.5C9,11.9,9.1,12,9.3,12.1
		c0.2,0.1,0.4,0.1,0.7,0.1c0.4,0,0.7-0.1,1-0.3c0.2-0.2,0.4-0.4,0.4-0.6c0-0.2-0.1-0.3-0.2-0.5c-0.1-0.1-0.3-0.2-0.5-0.3
		c-0.2-0.1-0.5-0.1-0.9-0.2c-0.5-0.1-0.9-0.2-1.3-0.4C8.2,9.9,7.9,9.7,7.7,9.5c-0.2-0.3-0.3-0.6-0.3-1c0-0.4,0.1-0.7,0.3-1
		c0.2-0.3,0.5-0.5,0.9-0.6C9,6.8,9.5,6.7,10,6.7c0.4,0,0.8,0,1.1,0.1c0.3,0.1,0.6,0.2,0.8,0.4c0.2,0.2,0.4,0.3,0.5,0.5
		c0.1,0.2,0.1,0.4,0.1,0.5c0,0.2-0.1,0.3-0.2,0.5C12.2,8.9,12,9,11.8,9c-0.2,0-0.3,0-0.4-0.1c-0.1-0.1-0.2-0.2-0.3-0.4
		c-0.1-0.2-0.3-0.4-0.4-0.5c-0.2-0.1-0.4-0.2-0.8-0.2C9.6,7.7,9.3,7.8,9.1,8C8.9,8.1,8.8,8.2,8.8,8.4c0,0.1,0,0.2,0.1,0.3
		C9,8.8,9.1,8.8,9.2,8.9C9.3,9,9.4,9,9.6,9c0.1,0,0.4,0.1,0.7,0.2c0.4,0.1,0.7,0.2,1.1,0.3c0.3,0.1,0.6,0.2,0.8,0.4
		c0.2,0.1,0.4,0.3,0.5,0.6c0.1,0.2,0.2,0.5,0.2,0.8C12.8,11.7,12.7,12,12.5,12.3z"/>
</g>
<g class="st0">
	<path class="st7" d="M10,20c5.5,0,10-4.5,10-10c0-5.5-4.5-10-10-10C4.5,0,0,4.5,0,10C0,15.5,4.5,20,10,20"/>
	<g class="st8">
		<path class="st4" d="M13.1,8.5c0.1,0,0.1,0,0.2,0H14l0.1-0.2c0,0,0,0,0,0l0.3-0.4c0,0,0,0,0,0l0,0h-3.9l0.2,0.6h1.1l-1.8,1.6
			C9.6,9.6,8.7,8.5,8.1,7.6h1.3V7.2l0-0.1c0,0,0,0,0,0v0H5v0.6h1.3c0.5,0.4,2.5,2.9,2.6,3.1c0,0.2,0.1,1.6,0,1.7
			c-0.2,0.2-1.1,0.2-1.3,0.2L7.5,13c0.4,0,1.6,0,2,0c0.8,0,2.1,0,2.3,0l0-0.4c-0.2,0-1.3,0-1.4,0c0-0.2-0.1-1.6,0-1.8
			C10.6,10.3,12.8,8.6,13.1,8.5z"/>
		<path class="st4" d="M13.7,11.8l0.6,0L15,9.2c-0.1,0-1.2-0.1-1.3-0.1L13.7,11.8z"/>
		<polygon class="st4" points="13.6,12.3 13.6,12.9 13.9,13 14.2,13 14.3,12.3 14,12.3 		"/>
	</g>
</g>
<g class="st0">
	<g class="st8">
		<path class="st9" d="M10,20c5.5,0,10-4.5,10-10c0-5.5-4.5-10-10-10C4.5,0,0,4.5,0,10C0,15.5,4.5,20,10,20"/>
	</g>
	<g class="st8">
		<path class="st4" d="M8.6,4.3c1.5,0.4,2.1,1.5,2.4,2.9c0.3,1.4,0.1,2.8-0.3,4.1c-0.3,1.1-0.8,2.2-1.5,3.2
			c-0.5,0.6-1.1,1.1-1.9,1.2c-0.7,0.1-1.3-0.3-1.4-1.1c0-0.3,0-0.7,0.1-1c0.3-0.9,0.8-1.6,1.5-2.1c0.1-0.1,0.2-0.1,0.4,0
			C8.2,11.8,8.6,12,9,12.2c0,0,0,0,0-0.1c-0.2-0.1-0.3-0.2-0.5-0.4c-1-0.9-1.7-2-1.9-3.4c-0.1-0.7-0.2-1.4,0-2.1
			C6.8,5.6,7,5,7.5,4.6c0.2-0.2,0.6-0.2,0.9-0.3C8.5,4.3,8.5,4.3,8.6,4.3z"/>
		<path class="st4" d="M9.9,14.6c0.1-0.3,0.1-0.7,0.2-1c0.5-1.3,1.1-2.6,1.6-3.9C12,9,12.4,8.4,12.9,8c0.2-0.2,0.4-0.3,0.6-0.4
			c0.4-0.2,0.7,0,0.7,0.4c0,0.5-0.1,1-0.3,1.4c-0.4,0.9-0.9,1.7-1.6,2.4C12.1,12,12,12.3,12,12.7c-0.1,0.8-0.3,1.5-0.8,2.1
			c-0.1,0.2-0.3,0.3-0.4,0.4c-0.4,0.3-0.7,0.1-0.8-0.4C9.9,14.8,9.9,14.7,9.9,14.6C9.9,14.6,9.9,14.6,9.9,14.6z"/>
	</g>
</g>
<g class="st0">
	<g class="st8">
		<path class="st10" d="M10,20c5.5,0,10-4.5,10-10c0-5.5-4.5-10-10-10C4.5,0,0,4.4,0,10C0,15.5,4.5,20,10,20"/>
	</g>
	<g class="st8">
		<path class="st4" d="M7.5,10.9c0-0.7,0.1-1.5,0.3-2.2c0.1-0.4,0.3-0.8,0.6-1.2c0.1-0.1,0.3-0.3,0.4-0.4c0.1-0.1,0.1-0.1,0.2,0
			c0.4,0.2,0.7,0.3,1.1,0.5c0.2,0.1,0.3,0.2,0.5,0.2c0.1,0,0.1,0.1,0.1,0.1c0,0.1,0.1,0.2,0.1,0.2c0.2,0.1,0.3,0.2,0.5,0.2
			c0.4,0.1,0.8,0,1.2-0.1C12.8,8.3,13,8.2,13.2,8c0.1-0.1,0.1-0.1,0.2,0c0.3,0.4,0.5,0.9,0.8,1.3c0,0.1,0,0.1,0,0.1
			c-0.6,0.5-1.2,0.8-1.9,1c-0.4,0.1-0.8,0.1-1.3,0c-0.1,0-0.1,0-0.1,0.1c0,0.1,0,0.3,0,0.4c0,0.1,0,0.1,0.1,0.1
			c0.4,0.2,0.9,0.5,1.3,0.8c0.6,0.5,1.1,1,1.5,1.7c0.1,0.1,0.1,0.2,0.2,0.3c0,0.1,0,0.1,0,0.2c-0.5,0.4-0.9,0.8-1.4,1.1c0,0,0,0,0,0
			c-0.1,0-0.1,0-0.1,0c-0.1-0.2-0.2-0.4-0.3-0.6c-0.4-0.6-0.9-1.1-1.5-1.5c-0.3-0.2-0.6-0.3-1-0.4c-0.1,0-0.1,0-0.1,0
			c-0.5,0.6-1.1,1.2-1.8,1.6c-0.6,0.4-1.2,0.7-1.9,0.9c-0.1,0-0.1,0-0.1-0.1c-0.1-0.2-0.2-0.5-0.3-0.7c-0.1-0.3-0.3-0.6-0.4-0.9
			c0-0.1,0-0.1,0.1-0.1c0.4-0.1,0.7-0.2,1.1-0.4c0.4-0.2,0.7-0.5,1-0.8c0.2-0.3,0.4-0.6,0.6-1c0,0,0-0.1,0-0.1
			C7.5,11.1,7.5,11,7.5,10.9z"/>
		<path class="st4" d="M12.7,5.2c0,0.9-0.8,1.7-1.7,1.7c-0.9,0-1.7-0.8-1.7-1.7c0-0.9,0.8-1.7,1.8-1.7C11.9,3.5,12.7,4.2,12.7,5.2z"
			/>
	</g>
</g>
</svg>
