<?xml version="1.0" encoding="utf-8"?>
<!-- Generator: Adobe Illustrator 19.0.1, SVG Export Plug-In . SVG Version: 6.00 Build 0)  -->
<svg version="1.1" id="Layer_1" xmlns="http://www.w3.org/2000/svg" xmlns:xlink="http://www.w3.org/1999/xlink" x="0px" y="0px"
	 viewBox="0 0 10 10" style="enable-background:new 0 0 10 10;" xml:space="preserve">
<style type="text/css">
	.st0{fill:#B92025;}
</style>
<g>
	<path class="st0" d="M6.5,0.9c-0.8-1-2.1-1-2.9,0C3.4,1.1,3.3,1.3,3.1,1.5C2.7,2.4,2.6,3.3,2.8,4.2C3,5.1,3.3,5.9,4.1,6.4
		c0.1,0.1,0.3,0.1,0.4,0.2c0,0.1-0.1,0.1-0.1,0.2C4.3,6.9,4.3,7,4.5,7c0.2,0,0.2,0.1,0.2,0.2C4.5,7.9,4.5,8.5,4.8,9
		C4.9,9.2,5,9.3,5,9.4h0.3C5.3,9.3,5.2,9.1,5.1,9C4.8,8.4,4.8,7.8,5,7.2C5,7,5.1,7,5.2,7c0.1,0,0.2,0,0.3,0c0.2,0,0.2-0.1,0.1-0.2
		c0-0.1-0.1-0.2-0.2-0.3C6.3,6.3,6.7,5.7,7,4.9c0.1-0.3,0.2-0.7,0.3-1.1C7.4,2.8,7.2,1.8,6.5,0.9z M4,2.8C3.8,3,3.5,3,3.4,2.6
		c-0.1-0.5,0-1,0.4-1.3C4,1.1,4.3,1.1,4.4,1.5c0,0.1,0,0.2,0,0.3C4.4,2.1,4.3,2.5,4,2.8z"/>
</g>
</svg>
