<?xml version="1.0" encoding="utf-8"?>
<!-- Generator: Adobe Illustrator 19.0.1, SVG Export Plug-In . SVG Version: 6.00 Build 0)  -->
<svg version="1.1" id="Layer_1" xmlns="http://www.w3.org/2000/svg" xmlns:xlink="http://www.w3.org/1999/xlink" x="0px" y="0px"
	 viewBox="0 0 30 30" style="enable-background:new 0 0 30 30;" xml:space="preserve">
<style type="text/css">
	.st0{fill:#FFFFFF;}
</style>
<g>
	<g>
		<g>
			<g>
				<path class="st0" d="M15,1.3C7.4,1.3,1.3,7.4,1.3,15c0,7.6,6.1,13.7,13.7,13.7c7.6,0,13.7-6.1,13.7-13.7
					C28.7,7.4,22.6,1.3,15,1.3z M15,26.9C8.5,26.9,3.1,21.5,3.1,15S8.5,3.1,15,3.1S26.9,8.5,26.9,15S21.5,26.9,15,26.9z"/>
				<path class="st0" d="M20,8.7l-5,5l-4.5-5c-0.4-0.4-0.9-0.4-1.3,0C8.9,9,8.9,9.6,9.2,9.9l4.5,5L8.7,20c-0.4,0.4-0.4,0.9,0,1.3
					c0.4,0.4,0.9,0.4,1.3,0l5-5l4.5,5c0.4,0.4,0.9,0.4,1.3,0c0.4-0.4,0.4-0.9,0-1.3l-4.5-5l5.1-5.1c0.4-0.4,0.4-0.9,0-1.3
					C21,8.3,20.4,8.3,20,8.7z"/>
			</g>
		</g>
	</g>
</g>
</svg>
