<?xml version="1.0" encoding="utf-8"?>
<!-- Generator: Adobe Illustrator 19.0.1, SVG Export Plug-In . SVG Version: 6.00 Build 0)  -->
<svg version="1.1" id="Capa_1" xmlns="http://www.w3.org/2000/svg" xmlns:xlink="http://www.w3.org/1999/xlink" x="0px" y="0px"
	 viewBox="346 -246 792 792" style="enable-background:new 346 -246 792 792;" xml:space="preserve">
<style type="text/css">
	.st0{fill:#FE9A44;}
</style>
<g>
	<g>
		<g>
			<path class="st0" d="M583.9,482.4c-31.9-81.3,2.2-187.9,2.2-187.9s-2.9-2.9-10.2-6.6c-45.8,129.1,7.9,221,7.9,221
				S586.6,489.2,583.9,482.4z"/>
			<path class="st0" d="M577.5,315c0,0,83.9-40,101.5-86.3c17.6-46.4,88.7-108.5,88.7-108.5s-11.5-6.6-37.7-1.2
				c21.3-21.3,65.8-19.8,65.8-19.8s8.2-11.5,48.7-46.3C885,18,992.2-13.9,992.2-13.9s68.7-27,68.7-53.9
				c-11.4-13.3,1.3-20.2,1.3-20.2s-4.1-19.5-18.9-30.3c-51.4-35.2-89.5-10-89.5-10s12-14.5,37-22.3C856.9-169.8,734-103,682.8-37.8
				C631.6,27.3,615,103.8,615,103.8s-1.1-10.2-1-43.3c-72,137.8-39.5,231.9-39.5,231.9L577.5,315z"/>
		</g>
		<path class="st0" d="M604.7,242.7c107.7-305.6,395-319.1,395-319.1S707.5-110.4,604.7,242.7z"/>
	</g>
</g>
</svg>
