<?xml version="1.0" encoding="utf-8"?>
<!-- Generator: Adobe Illustrator 19.0.1, SVG Export Plug-In . SVG Version: 6.00 Build 0)  -->
<svg version="1.1" id="Capa_1" xmlns="http://www.w3.org/2000/svg" xmlns:xlink="http://www.w3.org/1999/xlink" x="0px" y="0px"
	 viewBox="-23 124.1 52.9 52.9" style="enable-background:new -23 124.1 52.9 52.9;" xml:space="preserve">
<style type="text/css">
	.st0{fill:#F469AF;}
</style>
<g>
	<path class="st0" d="M20,140.7c0-9.1-7.4-16.6-16.6-16.6c-9.1,0-16.6,7.4-16.6,16.6c0,8.4,6.3,15.4,14.5,16.4v10.1h-4.2
		c-1.2,0-2.1,1-2.1,2.1s1,2.1,2.1,2.1h4.2v3.3c0,1.2,1,2.1,2.1,2.1c1.2,0,2.1-1,2.1-2.1v-3.3h4.2c1.2,0,2.1-1,2.1-2.1
		s-1-2.1-2.1-2.1H5.6v-10.1C13.7,156.1,20,149.2,20,140.7z M-8.9,140.7c0-6.8,5.5-12.3,12.3-12.3c6.8,0,12.3,5.5,12.3,12.3
		s-5.5,12.3-12.3,12.3C-3.4,153.1-8.9,147.5-8.9,140.7z"/>
</g>
</svg>
