<?xml version="1.0" encoding="utf-8"?>
<!-- Generator: Adobe Illustrator 19.0.1, SVG Export Plug-In . SVG Version: 6.00 Build 0)  -->
<svg version="1.1" id="Capa_1" xmlns="http://www.w3.org/2000/svg" xmlns:xlink="http://www.w3.org/1999/xlink" x="0px" y="0px"
	 viewBox="42.5 -3.5 10 10" style="enable-background:new 42.5 -3.5 10 10;" xml:space="preserve">
<style type="text/css">
	.st0{fill:#F469AF;}
</style>
<g>
	<path class="st0" d="M50.8-0.3c0-1.7-1.4-3.1-3.1-3.1c-1.7,0-3.1,1.4-3.1,3.1c0,1.6,1.2,2.9,2.7,3.1v1.9h-0.8
		c-0.2,0-0.4,0.2-0.4,0.4c0,0.2,0.2,0.4,0.4,0.4h0.8v0.6c0,0.2,0.2,0.4,0.4,0.4c0.2,0,0.4-0.2,0.4-0.4V5.5h0.8
		c0.2,0,0.4-0.2,0.4-0.4c0-0.2-0.2-0.4-0.4-0.4h-0.8V2.8C49.6,2.6,50.8,1.3,50.8-0.3z M45.3-0.3c0-1.3,1-2.3,2.3-2.3
		c1.3,0,2.3,1,2.3,2.3S48.9,2,47.6,2C46.4,2,45.3,1,45.3-0.3z"/>
</g>
</svg>
