<?xml version="1.0" encoding="utf-8"?>
<!-- Generator: Adobe Illustrator 19.0.1, SVG Export Plug-In . SVG Version: 6.00 Build 0)  -->
<svg version="1.1" id="Capa_1" xmlns="http://www.w3.org/2000/svg" xmlns:xlink="http://www.w3.org/1999/xlink" x="0px" y="0px"
	 viewBox="33.5 -2.5 10 10" style="enable-background:new 33.5 -2.5 10 10;" xml:space="preserve">
<style type="text/css">
	.st0{fill:#3BAACC;}
</style>
<g>
	<path class="st0" d="M41.3-2.5c-0.3,0-0.5,0.2-0.5,0.5c0,0.3,0.2,0.5,0.5,0.5h0.6l-2,2c-0.7-0.5-1.5-0.9-2.4-0.9
		c-2.1,0-3.9,1.7-3.9,3.9s1.7,3.9,3.9,3.9c2.1,0,3.9-1.7,3.9-3.9c0-0.9-0.3-1.6-0.7-2.3l2.1-2.1v0.4c0,0.3,0.2,0.5,0.5,0.5
		s0.5-0.2,0.5-0.5v-2.1L41.3-2.5L41.3-2.5z M37.4,6.4c-1.6,0-2.9-1.3-2.9-2.9s1.3-2.9,2.9-2.9c1.6,0,2.9,1.3,2.9,2.9
		S39,6.4,37.4,6.4z"/>
</g>
</svg>
