<?xml version="1.0" encoding="utf-8"?>
<!-- Generator: Adobe Illustrator 19.0.1, SVG Export Plug-In . SVG Version: 6.00 Build 0)  -->
<svg version="1.1" id="Capa_1" xmlns="http://www.w3.org/2000/svg" xmlns:xlink="http://www.w3.org/1999/xlink" x="0px" y="0px"
	 viewBox="-27 129.9 43.1 43.1" style="enable-background:new -27 129.9 43.1 43.1;" xml:space="preserve">
<style type="text/css">
	.st0{fill:#3BAACC;}
</style>
<g>
	<path class="st0" d="M6.4,130.2c-1.2,0-2.1,1-2.1,2.1c0,1.2,1,2.1,2.1,2.1h2.4L0,143.2c-2.9-2.3-6.5-3.7-10.4-3.7
		c-9.2,0-16.6,7.4-16.6,16.6s7.4,16.6,16.6,16.6c9.1,0,16.6-7.4,16.6-16.6c0-3.7-1.2-7-3.2-9.8l8.9-8.9v1.9c0,1.2,1,2.1,2.1,2.1
		s2.1-1,2.1-2.1v-9.2L6.4,130.2L6.4,130.2z M-10.4,168.4c-6.8,0-12.3-5.5-12.3-12.3s5.5-12.3,12.3-12.3c6.8,0,12.3,5.5,12.3,12.3
		S-3.6,168.4-10.4,168.4z"/>
</g>
</svg>
