<?xml version="1.0" encoding="utf-8"?>
<!-- Generator: Adobe Illustrator 19.0.1, SVG Export Plug-In . SVG Version: 6.00 Build 0)  -->
<svg version="1.1" id="Layer_1" xmlns="http://www.w3.org/2000/svg" xmlns:xlink="http://www.w3.org/1999/xlink" x="0px" y="0px"
	 viewBox="0 0 30 30" style="enable-background:new 0 0 30 30;" xml:space="preserve">
<style type="text/css">
	.st0{fill:#FFFFFF;}
</style>
<path class="st0" d="M14.7,0C6.6,0,0,6.6,0,14.7s6.6,14.7,14.7,14.7s14.7-6.6,14.7-14.7S22.9,0,14.7,0z M14.7,28.2
	c-6.9,0-13.5-6.6-13.5-13.5S7.9,1.2,14.7,1.2s13.5,6.6,13.5,13.5S21.6,28.2,14.7,28.2z"/>
<g>
	<path class="st0" d="M21.4,10.9c-0.7-0.8-1.6-1.5-2.8-2c-1.2-0.5-2.5-0.7-3.9-0.7c-1.4,0-2.7,0.2-3.9,0.7c-1.2,0.5-2.1,1.2-2.8,2
		c-0.7,0.8-1,1.8-1,2.8c0,0.9,0.3,1.7,0.8,2.4c0.5,0.7,1.2,1.4,2.1,1.9c-0.1,0.2-0.1,0.4-0.2,0.7c-0.1,0.2-0.2,0.4-0.2,0.5
		c-0.1,0.1-0.2,0.3-0.3,0.4C9.1,19.7,9,19.8,9,19.9c-0.1,0.1-0.2,0.2-0.3,0.3c-0.1,0.2-0.2,0.2-0.3,0.3c0,0,0,0-0.1,0.1
		c0,0-0.1,0.1-0.1,0.1l-0.1,0.1c0,0,0,0.1,0,0.1c0,0,0,0,0,0.1c0,0,0,0.1,0,0.1v0c0,0.1,0.1,0.2,0.1,0.2c0.1,0.1,0.1,0.1,0.2,0.1h0
		c0.4,0,0.7-0.1,1-0.2c1.5-0.4,2.8-1.1,3.9-2.1c0.4,0,0.8,0.1,1.2,0.1c1.4,0,2.7-0.2,3.9-0.7c1.2-0.5,2.1-1.2,2.8-2
		c0.7-0.8,1-1.8,1-2.8C22.4,12.6,22.1,11.7,21.4,10.9z"/>
</g>
</svg>
