<?xml version="1.0" encoding="utf-8"?>
<!-- Generator: Adobe Illustrator 19.0.1, SVG Export Plug-In . SVG Version: 6.00 Build 0)  -->
<svg version="1.1" id="Layer_1" xmlns="http://www.w3.org/2000/svg" xmlns:xlink="http://www.w3.org/1999/xlink" x="0px" y="0px"
	 viewBox="0 0 30 30" style="enable-background:new 0 0 30 30;" xml:space="preserve">
<style type="text/css">
	.st0{fill:#FFFFFF;}
</style>
<g>
	<g id="_x38__3_">
		<g>
			<path class="st0" d="M15,1.4C7.5,1.4,1.4,7.5,1.4,15S7.5,28.6,15,28.6S28.6,22.5,28.6,15S22.5,1.4,15,1.4z M15,26.9
				C8.4,26.9,3.1,21.6,3.1,15S8.4,3.1,15,3.1S26.9,8.4,26.9,15S21.6,26.9,15,26.9z M20.1,14.2h-4.2V9.9c0-0.5-0.4-0.8-0.8-0.8
				s-0.8,0.4-0.8,0.8v4.2H9.9c-0.5,0-0.8,0.4-0.8,0.8s0.4,0.8,0.8,0.8h4.2v4.2c0,0.5,0.4,0.8,0.8,0.8s0.8-0.4,0.8-0.8v-4.2h4.2
				c0.5,0,0.8-0.4,0.8-0.8S20.6,14.2,20.1,14.2z"/>
		</g>
	</g>
</g>
</svg>
